solid Box1
facet normal 0.0 0.0 -1.0
  outer loop
    vertex 40.0 40.0 0.0
    vertex 0.0 0.0 0.0
    vertex 0.0 40.0 0.0
  endloop
endfacet
facet normal 0.0 0.0 -1.0
  outer loop
    vertex 0.0 0.0 0.0
    vertex 40.0 40.0 0.0
    vertex 40.0 0.0 0.0
  endloop
endfacet
facet normal -0.0 -0.0 1.0
  outer loop
    vertex 40.0 0.0 10.0
    vertex 0.0 40.0 10.0
    vertex 0.0 0.0 10.0
  endloop
endfacet
facet normal -0.0 -0.0 1.0
  outer loop
    vertex 0.0 40.0 10.0
    vertex 40.0 0.0 10.0
    vertex 40.0 40.0 10.0
  endloop
endfacet
facet normal -0.0 -1.0 -0.0
  outer loop
    vertex 40.0 0.0 10.0
    vertex 0.0 0.0 0.0
    vertex 40.0 0.0 0.0
  endloop
endfacet
facet normal -0.0 -1.0 -0.0
  outer loop
    vertex 0.0 0.0 0.0
    vertex 40.0 0.0 10.0
    vertex 0.0 0.0 10.0
  endloop
endfacet
facet normal -0.0 1.0 0.0
  outer loop
    vertex 0.0 40.0 10.0
    vertex 40.0 40.0 0.0
    vertex 0.0 40.0 0.0
  endloop
endfacet
facet normal -0.0 1.0 0.0
  outer loop
    vertex 40.0 40.0 0.0
    vertex 0.0 40.0 10.0
    vertex 40.0 40.0 10.0
  endloop
endfacet
facet normal -1.0 0.0 0.0
  outer loop
    vertex 0.0 40.0 10.0
    vertex 0.0 0.0 0.0
    vertex 0.0 0.0 10.0
  endloop
endfacet
facet normal -1.0 0.0 0.0
  outer loop
    vertex 0.0 0.0 0.0
    vertex 0.0 40.0 10.0
    vertex 0.0 40.0 0.0
  endloop
endfacet
facet normal 1.0 0.0 0.0
  outer loop
    vertex 40.0 40.0 0.0
    vertex 40.0 0.0 10.0
    vertex 40.0 0.0 0.0
  endloop
endfacet
facet normal 1.0 0.0 0.0
  outer loop
    vertex 40.0 0.0 10.0
    vertex 40.0 40.0 0.0
    vertex 40.0 40.0 10.0
  endloop
endfacet
endsolid Box1
